<svg width="650" height="172" viewBox="0 0 650 172" fill="none" xmlns="http://www.w3.org/2000/svg">
<g clip-path="url(#clip0_7_8)">
<rect x="637.359" width="16" height="120" rx="4" transform="rotate(44 637.359 0)" fill="#0A0D10"/>
<rect x="554" y="86.3137" width="16" height="120" rx="4" transform="rotate(-45 554 86.3137)" fill="#0A0D10"/>
<path d="M22.8 158V18H75.2C87.0667 18 97.2667 19.9333 105.8 23.8C114.333 27.5333 120.867 33 125.4 40.2C130.067 47.2667 132.4 55.8667 132.4 66C132.4 75.8667 130.067 84.4 125.4 91.6C120.867 98.6667 114.333 104.133 105.8 108C97.2667 111.867 87.0667 113.8 75.2 113.8H31L37.6 106.8V158H22.8ZM37.6 108L31 100.8H74.8C88.8 100.8 99.4 97.8 106.6 91.8C113.933 85.6667 117.6 77.0667 117.6 66C117.6 54.8 113.933 46.1333 106.6 40C99.4 33.8667 88.8 30.8 74.8 30.8H31L37.6 23.8V108ZM158.863 158V53H172.463V81.6L171.063 76.6C173.996 68.6 178.929 62.5333 185.863 58.4C192.796 54.1333 201.396 52 211.663 52V65.8C211.129 65.8 210.596 65.8 210.063 65.8C209.529 65.6667 208.996 65.6 208.463 65.6C197.396 65.6 188.729 69 182.463 75.8C176.196 82.4667 173.063 92 173.063 104.4V158H158.863ZM281.197 159C270.264 159 260.664 156.733 252.397 152.2C244.13 147.533 237.664 141.2 232.997 133.2C228.33 125.067 225.997 115.8 225.997 105.4C225.997 95 228.197 85.8 232.597 77.8C237.13 69.8 243.264 63.5333 250.997 59C258.864 54.3333 267.664 52 277.397 52C287.264 52 295.997 54.2667 303.597 58.8C311.33 63.2 317.397 69.4667 321.797 77.6C326.197 85.6 328.397 94.8667 328.397 105.4C328.397 106.067 328.33 106.8 328.197 107.6C328.197 108.267 328.197 109 328.197 109.8H236.797V99.2H320.597L314.997 103.4C314.997 95.8 313.33 89.0667 309.997 83.2C306.797 77.2 302.397 72.5333 296.797 69.2C291.197 65.8667 284.73 64.2 277.397 64.2C270.197 64.2 263.73 65.8667 257.997 69.2C252.264 72.5333 247.797 77.2 244.597 83.2C241.397 89.2 239.797 96.0667 239.797 103.8V106C239.797 114 241.53 121.067 244.997 127.2C248.597 133.2 253.53 137.933 259.797 141.4C266.197 144.733 273.464 146.4 281.597 146.4C287.997 146.4 293.93 145.267 299.397 143C304.997 140.733 309.797 137.267 313.797 132.6L321.797 141.8C317.13 147.4 311.264 151.667 304.197 154.6C297.264 157.533 289.597 159 281.197 159ZM382.347 158L335.747 53H350.547L393.347 150.4H386.347L429.747 53H443.747L396.947 158H382.347Z" fill="#0A0D10"/>
</g>
<defs>
<clipPath id="clip0_7_8">
<rect width="650" height="172" fill="white"/>
</clipPath>
</defs>
</svg>
