<svg width="650" height="172" viewBox="0 0 650 172" fill="none" xmlns="http://www.w3.org/2000/svg">
<g clip-path="url(#clip0_7_2)">
<rect width="16" height="120" rx="4" transform="matrix(-0.71934 0.694658 0.694658 0.71934 13.641 0)" fill="#0A0D10"/>
<rect width="16" height="120" rx="4" transform="matrix(-0.707107 -0.707107 -0.707107 0.707107 97 86.3137)" fill="#0A0D10"/>
<path d="M203.8 158V18H216L312.6 139.6H306.2V18H320.8V158H308.6L212.2 36.4H218.6V158H203.8ZM408.095 159C397.162 159 387.562 156.733 379.295 152.2C371.029 147.533 364.562 141.2 359.895 133.2C355.229 125.067 352.895 115.8 352.895 105.4C352.895 95 355.095 85.8 359.495 77.8C364.029 69.8 370.162 63.5333 377.895 59C385.762 54.3333 394.562 52 404.295 52C414.162 52 422.895 54.2667 430.495 58.8C438.229 63.2 444.295 69.4667 448.695 77.6C453.095 85.6 455.295 94.8667 455.295 105.4C455.295 106.067 455.229 106.8 455.095 107.6C455.095 108.267 455.095 109 455.095 109.8H363.695V99.2H447.495L441.895 103.4C441.895 95.8 440.229 89.0667 436.895 83.2C433.695 77.2 429.295 72.5333 423.695 69.2C418.095 65.8667 411.629 64.2 404.295 64.2C397.095 64.2 390.629 65.8667 384.895 69.2C379.162 72.5333 374.695 77.2 371.495 83.2C368.295 89.2 366.695 96.0667 366.695 103.8V106C366.695 114 368.429 121.067 371.895 127.2C375.495 133.2 380.429 137.933 386.695 141.4C393.095 144.733 400.362 146.4 408.495 146.4C414.895 146.4 420.829 145.267 426.295 143C431.895 140.733 436.695 137.267 440.695 132.6L448.695 141.8C444.029 147.4 438.162 151.667 431.095 154.6C424.162 157.533 416.495 159 408.095 159ZM465.269 158L509.669 100.4L509.469 107.4L467.269 53H483.269L517.869 98L511.869 97.8L546.469 53H562.069L519.469 108L519.669 100.4L564.469 158H548.269L511.669 110L517.269 110.8L481.269 158H465.269ZM621.305 159C611.438 159 603.838 156.333 598.505 151C593.171 145.667 590.505 138.133 590.505 128.4V29.8H604.705V127.6C604.705 133.733 606.238 138.467 609.305 141.8C612.505 145.133 617.038 146.8 622.905 146.8C629.171 146.8 634.371 145 638.505 141.4L643.505 151.6C640.705 154.133 637.305 156 633.305 157.2C629.438 158.4 625.438 159 621.305 159ZM571.705 64.8V53H636.705V64.8H571.705Z" fill="#0A0D10"/>
</g>
<defs>
<clipPath id="clip0_7_2">
<rect width="650" height="172" fill="white"/>
</clipPath>
</defs>
</svg>
